<svg width="24" height="24" viewBox="0 0 24 24" fill="none" xmlns="http://www.w3.org/2000/svg">
<path d="M22.119 9.82047C22.3872 9.01243 22.4799 8.15649 22.3909 7.30978C22.3019 6.46308 22.0333 5.6451 21.603 4.91047C20.965 3.79983 19.9907 2.92052 18.8207 2.39931C17.6507 1.87811 16.3454 1.74195 15.093 2.01047C14.3817 1.21914 13.4747 0.628871 12.4631 0.298935C11.4515 -0.0310004 10.3709 -0.088994 9.3298 0.130777C8.2887 0.350548 7.32374 0.840349 6.5318 1.551C5.73987 2.26166 5.14883 3.16815 4.81803 4.17947C3.98365 4.35053 3.19539 4.69772 2.50593 5.19783C1.81648 5.69793 1.2417 6.33944 0.820028 7.07947C0.174978 8.18825 -0.100696 9.47347 0.0328699 10.7493C0.166436 12.0251 0.702319 13.2253 1.56303 14.1765C1.2935 14.9842 1.19957 15.8401 1.28752 16.6871C1.37547 17.534 1.64328 18.3524 2.07303 19.0875C2.71191 20.1985 3.68705 21.078 4.85793 21.5992C6.0288 22.1204 7.33492 22.2563 8.58803 21.9875C9.15324 22.6243 9.84782 23.1332 10.6254 23.4801C11.4029 23.8271 12.2456 24.0041 13.097 23.9995C14.3807 24.0006 15.6316 23.5939 16.669 22.8379C17.7065 22.0819 18.4769 21.0158 18.869 19.7935C19.7031 19.622 20.491 19.2746 21.1803 18.7745C21.8695 18.2745 22.4442 17.6332 22.866 16.8935C23.5034 15.7864 23.7744 14.5061 23.6402 13.2358C23.5061 11.9654 22.9736 10.77 22.119 9.82047ZM13.097 22.4295C12.046 22.4312 11.0279 22.063 10.221 21.3895L10.362 21.3085L15.141 18.5505C15.2598 18.4806 15.3583 18.3812 15.427 18.2618C15.4958 18.1424 15.5323 18.0072 15.533 17.8695V11.1325L17.553 12.3005C17.563 12.3055 17.5717 12.3129 17.5783 12.3219C17.5849 12.3309 17.5892 12.3414 17.591 12.3525V17.9355C17.5884 19.1265 17.1141 20.2681 16.2718 21.1103C15.4296 21.9525 14.2881 22.4268 13.097 22.4295ZM3.43703 18.3035C2.90953 17.3931 2.72008 16.3258 2.90203 15.2895L3.04403 15.3745L7.82703 18.1335C7.9453 18.2028 8.07992 18.2394 8.21703 18.2394C8.35413 18.2394 8.48876 18.2028 8.60703 18.1335L14.45 14.7645V17.0965C14.4496 17.1086 14.4464 17.1205 14.4407 17.1313C14.435 17.142 14.4269 17.1513 14.417 17.1585L9.57703 19.9495C8.54423 20.544 7.31775 20.7047 6.16667 20.3961C5.0156 20.0875 4.03392 19.3349 3.43703 18.3035ZM2.17703 7.89547C2.708 6.97907 3.54614 6.28014 4.54303 5.92247V11.5995C4.54129 11.7366 4.57637 11.8716 4.64462 11.9905C4.71287 12.1094 4.81178 12.2078 4.93103 12.2755L10.746 15.6305L8.72603 16.7985C8.71509 16.8042 8.7029 16.8073 8.69053 16.8073C8.67816 16.8073 8.66597 16.8042 8.65503 16.7985L3.82503 14.0125C2.80023 13.4153 2.05238 12.4379 1.74383 11.2927C1.43528 10.1474 1.59094 8.92665 2.17703 7.89547ZM18.774 11.7505L12.941 8.36347L14.956 7.19947C14.967 7.19369 14.9792 7.19067 14.9915 7.19067C15.0039 7.19067 15.0161 7.19369 15.027 7.19947L19.857 9.99047C20.596 10.4164 21.1984 11.0438 21.5941 11.7994C21.9897 12.555 22.1621 13.4076 22.0912 14.2575C22.0203 15.1075 21.7091 15.9197 21.1937 16.5993C20.6784 17.2789 19.9803 17.7978 19.181 18.0955V12.4175C19.1768 12.2805 19.1371 12.1471 19.0658 12.0301C18.9944 11.9132 18.8939 11.8168 18.774 11.7505ZM20.784 8.72747L20.643 8.64247L15.869 5.86047C15.75 5.79068 15.6145 5.75388 15.4765 5.75388C15.3385 5.75388 15.2031 5.79068 15.084 5.86047L9.24603 9.22947V6.89647C9.24481 6.88472 9.24677 6.87287 9.2517 6.86214C9.25662 6.85141 9.26433 6.8422 9.27403 6.83547L14.104 4.04847C14.8444 3.62239 15.6907 3.41583 16.5441 3.45294C17.3975 3.49004 18.2227 3.76928 18.9233 4.258C19.6239 4.74672 20.1709 5.42475 20.5004 6.21284C20.8299 7.00093 20.9283 7.86653 20.784 8.70847V8.72747ZM8.14403 12.8625L6.12403 11.6985C6.11387 11.6924 6.10519 11.6841 6.09862 11.6742C6.09205 11.6644 6.08775 11.6532 6.08603 11.6415V6.07447C6.08771 5.22056 6.3323 4.38476 6.79125 3.66468C7.2502 2.9446 7.90456 2.36996 8.67789 2.00788C9.45123 1.6458 10.3116 1.51123 11.1586 1.61988C12.0056 1.72853 12.8041 2.07592 13.461 2.62147L13.319 2.70147L8.54103 5.45947C8.4221 5.52917 8.32335 5.62859 8.25445 5.74798C8.18555 5.86737 8.14887 6.00262 8.14803 6.14047L8.14403 12.8625ZM9.24103 10.4975L11.843 8.99747L14.45 10.4975V13.4965L11.853 14.9965L9.24603 13.4965L9.24103 10.4975Z" fill="white"/>
</svg>
